<svg id="Layer_1" data-name="Layer 1" xmlns="http://www.w3.org/2000/svg" viewBox="0 0 300 300"><defs><style>.cls-1{fill:#3e6866;}.cls-2{fill:#50c1ae;}</style></defs><rect class="cls-1" width="300" height="300"/><g id="_746c6e1a-f348-4b0a-ab78-73b73ab2d04d" data-name="746c6e1a-f348-4b0a-ab78-73b73ab2d04d"><path class="cls-2" d="M196.91,150V129.15a26.08,26.08,0,0,0-26.06-26.06H150V61.4a5.16,5.16,0,0,0-5.21-5.21H61.4a5.16,5.16,0,0,0-5.21,5.21v83.39A5.16,5.16,0,0,0,61.4,150h41.69v20.85a26.08,26.08,0,0,0,26.06,26.06H150A46.91,46.91,0,1,0,196.91,150Zm-93.82-20.85v10.43H66.61v-73h73v36.48H129.15A26.08,26.08,0,0,0,103.09,129.15Zm26.06,57.33a15.75,15.75,0,0,1-15.63-15.63v-41.7a15.75,15.75,0,0,1,15.63-15.63h41.7a15.75,15.75,0,0,1,15.63,15.63v22.1a46.77,46.77,0,0,0-35.23,35.23Zm67.76,46.91a36.49,36.49,0,1,1,36.48-36.48A36.66,36.66,0,0,1,196.91,233.39Z"/></g></svg>